<svg width="28" height="47" viewBox="0 0 28 47" fill="none" xmlns="http://www.w3.org/2000/svg">
<path d="M19.5521 3.15143C18.7088 1.33355 17.542 -0.0393384 15.3456 0.983224C13.2962 1.93951 13.8061 3.63431 14.5611 5.2723C15.5024 7.30796 16.3751 9.37202 17.4243 11.7675C12.5412 11.1994 8.58961 11.8716 5.13811 14.4848C3.49079 15.7252 2.54947 17.7987 3.66729 19.181C4.78511 20.5634 6.95211 20.7244 8.75631 19.3041C9.61918 18.6224 10.688 18.0733 11.7568 17.7514C15.0416 16.7761 17.9342 17.6093 20.16 20.0711C22.3172 22.457 22.7094 25.2596 21.1896 28.1001C19.6207 31.0352 16.9733 32.3891 13.561 32.2092C9.26619 31.9915 6.35398 29.0658 6.18729 24.5779C6.09904 22.3055 5.37344 20.8758 3.1378 21.0084C0.902163 21.141 0.176561 23.3281 0.0392855 24.6915C-0.147018 26.5473 0.333448 28.8291 1.39243 30.3724C5.25577 35.9492 9.48191 41.2892 13.7767 47.008C17.5812 42.2266 21.0033 37.8144 24.543 33.4874C28.3279 28.8764 28.9653 23.9625 26.5433 18.5845C25.3667 15.9619 19.856 3.81421 19.5521 3.15143ZM25.8275 15.0719C25.8275 15.0719 25.3471 5.67944 25.1902 2.58334C24.9647 -1.85723 19.5423 0.206834 20.6209 2.9242C21.4053 4.87464 25.8275 15.0719 25.8275 15.0719Z" fill="#40C4FF"/>
</svg>
